PathFileType	4	(X/Y/Z)	Patient4_TMGait_0pt5_02_left_09.trc.trc
DataRate	CameraRate	NumFrames	NumMarkers	Units	OrigDataRate	OrigDataStartFrame	OrigNumFrames
77.777777777778	77.777777777778	5	33	mm	77.777777777778	89	       141
Frame#	Time	Sacral			L.Shoulder			Chest			R.Shoulder			Neck			R.ASIS			L.ASIS			R.Thigh.Superior			R.Thigh.Lateral			R.Thigh.Inferior			R.Patella			L.Thigh.Superior			L.Thigh.Lateral			L.Thigh.Inferior			L.Patella			L.Shank.Superior			L.Shank.Lateral			L.Shank.Inferior			R.Shank.Superior			R.Shank.Lateral			R.Shank.Inferior			R.Heel			R.Midfoot.Superior			R.Midfoot.Lateral			R.Toe			L.Heel			L.Midfoot.Lateral			L.Midfoot.Superior			L.Toe			L.Elbow			L.Wrist			R.Elbow			R.Wrist			
		X1	Y1	Z1	X2	Y2	Z2	X3	Y3	Z3	X4	Y4	Z4	X5	Y5	Z5	X6	Y6	Z6	X7	Y7	Z7	X8	Y8	Z8	X9	Y9	Z9	X10	Y10	Z10	X11	Y11	Z11	X12	Y12	Z12	X13	Y13	Z13	X14	Y14	Z14	X15	Y15	Z15	X16	Y16	Z16	X17	Y17	Z17	X18	Y18	Z18	X19	Y19	Z19	X20	Y20	Z20	X21	Y21	Z21	X22	Y22	Z22	X23	Y23	Z23	X24	Y24	Z24	X25	Y25	Z25	X26	Y26	Z26	X27	Y27	Z27	X28	Y28	Z28	X29	Y29	Z29	X30	Y30	Z30	X31	Y31	Z31	X32	Y32	Z32	X33	Y33	Z33	

89	12.231428571429	616.303222153095	1002.284858395260	487.549868125305	786.077494598058	1440.758813457727	324.456215484441	881.545524346253	1368.565890855045	488.804408881444	785.436396604950	1434.739894817925	660.352477546536	772.739590241791	1496.018840165734	477.323480665902	840.512909952350	941.048082848344	610.797478015371	833.395560868910	962.734851392696	336.989419711540	898.926371685154	747.115127526173	577.624305377605	824.401629861927	632.717127802809	632.260388561361	907.593084309479	587.612646847070	552.754018415978	915.579864620346	498.393009428853	556.444734461199	865.684774715702	739.158178526411	362.350068431497	771.894991167311	628.391020337998	298.975117794660	850.043059478465	540.978851763700	360.341773882173	839.705887904118	457.550108293977	360.548771472962	776.198805186229	398.276105392614	354.972780418365	642.683380729209	341.287745778917	302.521958359362	636.410202737105	215.871345723780	365.921608842586	891.827184339132	409.010351151572	562.000331946304	825.121637866179	300.493580503547	618.843114220764	874.472616442796	209.249060733896	556.405034454462	748.802839010400	42.562244406074	518.372856039311	918.439167350354	97.733241553397	560.354756008062	829.613087153315	36.486602336055	596.238569711023	1037.669717437485	45.147767366732	593.039976188811	450.380481581234	130.362224074954	400.488538769106	516.412859586342	92.003244826151	323.914127984007	617.144150265294	116.361418398508	348.106557898440	710.872751284463	32.539594471103	327.668556638350	822.423652137521	1098.441242910349	182.860100085447	1067.516095720495	1015.945826422023	191.109054132826	683.750904547344	1100.742378709094	761.872354053050	715.504518850663	840.981218294347	762.751296552009	
90	12.244285714286	616.142472019015	1003.001970828631	490.622626535121	785.505819201954	1441.382639617758	326.702187737471	882.474152040507	1368.561950245280	489.999934040132	788.316445252722	1434.674025295662	662.551325737654	773.805494464790	1496.389730072032	479.876928868056	841.112310014791	941.355525150826	612.164866773040	832.547468962412	962.993365688496	338.457501126842	897.289247058120	746.155907427854	579.824932901884	821.494584255201	632.649886827460	634.011987002743	904.106283595923	586.882759730160	554.294239556411	911.150392208329	497.795977874654	557.706734299583	869.535024144305	741.433336821294	364.113135031285	779.804664151582	628.512300857935	299.976178100587	860.763047477097	542.673939030546	360.885580403743	851.460427235046	458.026516045813	360.304201482298	785.954290696883	398.914093312845	355.092252623707	650.195429535101	346.679138535312	303.338931380644	640.305250539744	221.264717933680	366.074352090076	887.053276629753	408.610889952627	563.114175123560	819.879336804590	300.276491950540	619.674612529731	868.760969584367	208.985519878450	556.926100701865	742.451718780748	42.599644195727	518.497554472478	912.165078811142	97.599408542136	560.554034556118	823.211674779482	36.449580180970	596.304469129304	1031.338302160553	44.659879621145	593.205174765514	451.325514245830	144.053814489569	400.802245894532	515.378309707645	102.425511682438	324.099296569116	617.427845849022	121.418107633883	348.144918001463	706.049472457566	31.889832539409	327.589684652962	817.841297470638	1097.962431448590	186.110386468953	1060.623724077453	1007.853004292098	193.463590955236	692.956413493644	1098.942208852583	766.305947575311	736.067673966564	840.676701921462	765.062635230231	
91	12.257142857143	615.748127525604	1003.601422547096	493.611025498170	784.777494223592	1441.815703589334	328.782057172765	883.250349541155	1368.376260240984	491.010971040028	791.060235821937	1434.426612973921	664.552986158465	774.792274380604	1496.620799929167	482.232028350029	841.513793696939	941.563941960291	613.518119944742	831.469983623302	963.024904536808	339.879321830873	895.605838034830	745.288409516059	581.857452558705	818.758943593728	632.575321142991	635.740984719019	900.736303878302	586.190038571453	555.762525086958	906.856022913729	497.215957190998	558.982682436505	873.124390377130	743.830470743713	365.852450612141	787.546893273243	628.941394014952	300.764185698680	871.172276830588	544.791336923493	361.271448489782	863.042423624835	459.005402777929	359.966497199428	795.793502995679	399.937740851161	355.058600019215	658.036712241051	352.176665951935	304.059398439672	644.795528812273	226.872847680449	366.234290181345	882.396183760679	408.198021217954	564.220518069003	814.755339018672	300.051380242999	620.526546416017	863.121625353996	208.710961251212	557.448601594890	736.072404828134	42.666637154875	518.629775034597	905.886303315437	97.462108170976	560.741122660662	816.787757288754	36.421407609591	596.374493973481	1024.990447479647	44.119955377827	593.360233375768	453.330833249219	157.403189945868	401.309828225074	515.396448762508	112.988356686223	324.338438516230	618.528434878356	126.911852073812	348.197275414224	702.285378383384	31.542520651443	327.156862769995	812.928263204796	1097.283316228446	189.244069228829	1052.900847021601	998.998975969805	195.783064795248	702.521971484456	1097.072750097185	770.699797749520	757.343268908856	840.916934168546	767.218441568357	
92	12.270000000000	615.151263307690	1004.117797445471	496.516423939384	783.926714797936	1442.095100404248	330.685725816993	883.862131830194	1368.067096686377	491.855456552275	793.612823753138	1434.070555530367	666.355759917982	775.701000061268	1496.758388314164	484.361700424011	841.729792105524	941.712977822201	614.868823280867	830.148954161289	962.893867563391	341.263392182237	893.915030052718	744.547016101645	583.723456835667	816.176300918060	632.508239270803	637.411594863670	897.504272854513	585.544632812913	557.163717249353	902.711893584235	496.666069696378	560.242768722978	876.367163818550	746.375528401775	367.538522244813	794.934886736243	629.743626320189	301.348343736298	881.082092301079	547.367700956029	361.469577105270	874.281633496148	460.537568210067	359.482976463934	805.582409654864	401.381095086441	354.833604449493	666.082898422952	357.636461868965	304.664477729141	649.928645002825	232.485858881789	366.355799830039	877.866651185531	407.791547574238	565.295437146831	809.751111165669	299.844320813051	621.377611179536	857.559220342796	208.443603306168	557.963846694295	729.674515708984	42.765846332379	518.767628122276	899.610788595659	97.334016566791	560.923127882659	810.354228336468	36.409295850062	596.452240497466	1018.631595565191	43.562717648140	593.510299935090	456.497645769509	169.801383251424	402.021928465752	516.650302203853	123.203488407790	324.613842113533	620.639186722704	132.603062295195	348.186652480875	700.000877755706	31.608370570962	326.259014005517	807.722195809794	1096.443061973585	192.288466028768	1044.278391907593	989.384411285688	198.053868938903	712.457188958151	1095.181792812323	774.952552127140	779.263368401573	841.817782711529	769.135168146258	
93	12.282857142857	614.387313679171	1004.595310423293	499.344109241312	782.981844501745	1442.269462623241	332.413709192166	884.304481929287	1367.702383315975	492.556806791624	795.940847443771	1433.690244766221	667.969187778262	776.531178982158	1496.854107945800	486.255309928543	841.776186451315	941.841385202907	616.214275045355	828.582821842692	962.688963905091	342.617969564619	892.222646256240	743.938798248482	585.435703194492	813.681867443138	632.461251947885	638.990918420110	894.378419708560	584.947969722885	558.500930066049	898.677884158256	496.156500224288	561.454903632973	879.201735885663	749.089721175470	369.131470605150	801.807739076236	630.958119284226	301.743790149211	890.344112293859	550.413775231167	361.450837815833	885.034087573622	462.650972940973	358.806474608673	815.217416132023	403.253301179071	354.385849610326	674.238344516063	362.879401081456	305.134877169076	655.786884130184	237.853849623065	366.387057341100	873.432163494298	407.411533610533	566.316100487170	804.832285340637	299.676782273873	622.204008756845	852.056087191743	208.201960204234	558.463598910348	723.264958038468	42.896492590148	518.907660081093	893.340240465689	97.223949069113	561.104655325872	803.920414178773	36.417021759819	596.538806599796	1012.264475960385	43.019781922985	593.658431837344	460.939791074788	180.620734638603	402.919818625654	519.340423784117	132.539226563454	324.890561905310	623.986911875897	138.188966225837	348.032411785896	699.650276169800	32.159591519636	324.809545353075	802.264282670369	1095.497527954075	195.277732568617	1034.683582315787	979.043048526603	200.267013916882	722.756359407316	1093.340670924051	778.967425817762	801.756425085858	843.513712803297	770.722392793748	
